# xmcd CD database file
#
# Track frame offsets:
#	150
#	40018
#	177138
#	188298
#	199453
#	220853
#
# Disc length: 3158 seconds
#
# Revision: 0
# Processed by: cddbd v1.5PL3 Copyright (c) Steve Scherf et al.
# Submitted via: CDex 1.51
#
DISCID=4a0c5406
DTITLE=Claude Debussy/George Vukan - Children's Corner
DYEAR=1994
DGENRE=Jazz
TTITLE0=The Sinked Cathedral
TTITLE1=Children's Corner
TTITLE2=Minstrels
TTITLE3=The Little Negro
TTITLE4=Reprise
TTITLE5=G. Vukan: Bye, Bye Childhood
EXTD=YEAR: 1994
EXTT0=
EXTT1=
EXTT2=
EXTT3=
EXTT4=
EXTT5=
PLAYORDER=
